<?xml version="1.0" standalone="no"?>
<!DOCTYPE svg PUBLIC "-//W3C//DTD SVG 20010904//EN"
 "http://www.w3.org/TR/2001/REC-SVG-20010904/DTD/svg10.dtd">
<svg version="1.0" xmlns="http://www.w3.org/2000/svg"
 width="16.000000pt" height="16.000000pt" viewBox="0 0 16.000000 16.000000"
 preserveAspectRatio="xMidYMid meet">
<metadata>
Created by potrace 1.11, written by Peter Selinger 2001-2013
</metadata>
<g transform="translate(0.000000,16.000000) scale(0.002286,-0.002286)"
fill="#000000" stroke="none">
<path d="M3202 4990 c-197 -7 -251 -13 -350 -36 -64 -14 -126 -31 -137 -37
-11 -6 -84 -32 -163 -58 -142 -48 -164 -59 -356 -188 -38 -25 -77 -59 -85 -74
-9 -16 -39 -59 -67 -95 -28 -37 -66 -96 -84 -132 -19 -36 -49 -90 -68 -120
-94 -149 -143 -315 -178 -600 -3 -30 -10 -65 -15 -77 -31 -83 -42 -490 -15
-583 9 -30 21 -80 27 -110 6 -30 35 -104 64 -165 29 -60 65 -137 80 -170 139
-307 230 -408 469 -523 39 -18 94 -48 121 -67 28 -18 75 -43 105 -56 30 -12
71 -32 90 -43 50 -30 98 -52 150 -69 25 -8 65 -21 90 -30 62 -22 315 -39 497
-33 84 2 156 7 161 9 4 3 50 13 102 22 90 15 181 37 225 55 66 27 108 40 125
40 11 0 60 16 108 36 48 19 103 39 122 43 19 4 53 18 75 29 22 12 47 22 55 22
9 0 50 29 92 64 43 35 97 75 121 89 42 25 78 61 167 171 25 31 60 73 79 93 18
21 44 58 57 83 14 25 34 60 45 79 11 18 31 79 44 135 24 102 39 149 91 286
l29 75 -1 280 c-1 271 -1 283 -27 378 -19 69 -57 156 -132 305 -166 328 -174
341 -255 424 -41 42 -102 105 -135 140 -33 35 -85 76 -115 92 -30 16 -95 58
-145 94 -98 71 -223 135 -298 152 -26 5 -89 24 -139 41 -84 28 -107 31 -243
34 -82 2 -255 -1 -383 -5z"/>
</g>
</svg>
